# xmcd
#
# Track frame offsets:
#	150
#	7290
#	14356
#	21543
#	39916
#
# Disc length: 1405 seconds
#
# Revision: 2
# Processed by: cddbd v1.5.2PL0 Copyright (c) Steve Scherf et al.
# Submitted via: audiograbber 1.82.02
#
DISCID=38057b05
DTITLE=Heather Hedley - This Is Who I Am [CD Sampler]
DYEAR=2002
DGENRE=Soul
TTITLE0=He Is (Snippet)
TTITLE1=Fallin' For You (Snippet)
TTITLE2=I Wish I Wasn't (Snippet)
TTITLE3=Sista Girl (Snippet)
TTITLE4=Data Track
EXTD=
EXTT0=
EXTT1=
EXTT2=
EXTT3=
EXTT4=
PLAYORDER=
